<svg width="20" height="20" viewBox="0 0 20 20" fill="none" xmlns="http://www.w3.org/2000/svg">
<path fill-rule="evenodd" clip-rule="evenodd" d="M0 10C0 4.477 4.477 0 10 0C15.523 0 20 4.477 20 10C20 15.523 15.523 20 10 20C4.477 20 0 15.523 0 10ZM7.707 8.293C7.61475 8.19749 7.50441 8.12131 7.3824 8.0689C7.2604 8.01649 7.12918 7.9889 6.9964 7.98775C6.86362 7.9866 6.73194 8.0119 6.60905 8.06218C6.48615 8.11246 6.3745 8.18671 6.28061 8.28061C6.18671 8.3745 6.11246 8.48615 6.06218 8.60905C6.0119 8.73194 5.9866 8.86362 5.98775 8.9964C5.9889 9.12918 6.01649 9.2604 6.0689 9.3824C6.12131 9.50441 6.19749 9.61475 6.293 9.707L9.293 12.707C9.48053 12.8945 9.73484 12.9998 10 12.9998C10.2652 12.9998 10.5195 12.8945 10.707 12.707L13.707 9.707C13.8892 9.5184 13.99 9.2658 13.9877 9.0036C13.9854 8.7414 13.8802 8.49059 13.6948 8.30518C13.5094 8.11977 13.2586 8.0146 12.9964 8.01233C12.7342 8.01005 12.4816 8.11084 12.293 8.293L10 10.586L7.707 8.293Z" fill="#A9B4CC"/>
</svg>
