<svg width="178" height="88" viewBox="0 0 178 88" fill="none" xmlns="http://www.w3.org/2000/svg">
<path fill-rule="evenodd" clip-rule="evenodd" d="M130.3 50.2494C130.156 63.3496 130.599 87.0089 173.528 87.4806L173.538 87.4998C175.579 87.5191 177.263 85.8731 177.282 83.8325C177.301 81.7919 175.665 80.1075 173.615 80.0882C138.087 79.6936 137.568 63.7443 137.712 50.3553C137.713 50.2862 137.714 50.2136 137.714 50.1377C137.759 46.0904 137.907 32.4875 130.878 20.526C123.312 7.63757 110.79 0.736136 94.6863 0.553253C86.909 0.466624 77.7937 3.46013 69.6698 8.59048C61.6518 3.27724 52.6135 0.091225 44.8362 0.00459609C29.8494 -0.168662 18.347 4.55744 10.6563 14.0289C3.64894 22.6533 0.0682743 34.8294 0.000896246 50.2301C-0.0463087 61.2478 1.78628 69.8485 1.92919 70.5192C1.93198 70.5323 1.93413 70.5424 1.9356 70.5494C2.37837 72.5419 4.35159 73.8028 6.35368 73.3601C8.35577 72.9173 9.61671 70.9441 9.17394 68.942L9.17321 68.9386C9.06773 68.4424 2.20667 36.1662 16.4219 18.678C22.6207 11.0546 32.1499 7.26218 44.7592 7.40656C49.8414 7.45469 56.6466 9.4664 63.2304 13.2877C52.0745 22.6821 45.8469 35.2337 45.7025 48.6516C45.4907 67.5944 60.824 72.7729 68.9671 72.8595C77.1006 72.9462 92.5495 68.1142 92.7612 49.1713C92.9056 35.7535 86.9571 23.0671 76.013 13.4225C82.6834 9.74554 89.5367 7.88783 94.6093 7.94558C108.172 8.09959 118.221 13.5861 124.496 24.2607C129.415 32.6348 130.377 43.5212 130.3 50.2494ZM69.5686 17.6325C60.5903 24.5148 53.2584 34.9667 53.1044 48.7286C52.9312 64.8031 67.3886 65.4287 69.0345 65.4383C70.6805 65.4479 85.1571 65.1496 85.34 49.0847C85.494 35.3228 78.393 24.7072 69.5686 17.6325ZM115.429 48.5843C115.429 51.4922 113.072 53.8494 110.164 53.8494C107.256 53.8494 104.899 51.4922 104.899 48.5843C104.899 45.6765 107.256 43.3192 110.164 43.3192C113.072 43.3192 115.429 45.6765 115.429 48.5843Z" fill="white"/>
</svg>
