<svg width="15" height="15" viewBox="0 0 65 51" fill="none" xmlns="http://www.w3.org/2000/svg">
<rect width="64.6111" height="50.2351" rx="5.72503" fill="#252525"/>
<path d="M26.9881 26.2483C26.9881 21.7334 29.283 17.7288 32.8102 15.1376C30.218 13.2531 26.9457 12.1146 23.3759 12.1146C14.9184 12.1146 8.07629 18.4354 8.07629 26.2483C8.07629 34.0612 14.9184 40.382 23.3757 40.382C26.9455 40.382 30.2178 39.2435 32.8102 37.3588C29.283 34.8069 26.9881 30.7632 26.9881 26.2483Z" fill="#EB001B"/>
<path d="M57.544 26.2483C57.544 34.061 50.702 40.382 42.2448 40.382C38.6749 40.382 35.4027 39.2435 32.8103 37.3588C36.3801 34.7678 38.6325 30.7632 38.6325 26.2483C38.6325 21.7334 36.3375 17.7288 32.8103 15.1376C35.4025 13.2531 38.6749 12.1146 42.2448 12.1146C50.702 12.1146 57.544 18.4748 57.544 26.2483Z" fill="#F79E1B"/>
</svg>
